<?xml version="1.0" encoding="UTF-8" standalone="no"?>
<svg
   width="414.26099"
   height="96.667999"
   viewBox="0 0 414.26099 96.667999"
   version="1.1"
   id="svg33"
   sodipodi:docname="logo.svg"
   inkscape:version="1.2.1 (9c6d41e, 2022-07-14)"
   xmlns:inkscape="http://www.inkscape.org/namespaces/inkscape"
   xmlns:sodipodi="http://sodipodi.sourceforge.net/DTD/sodipodi-0.dtd"
   xmlns="http://www.w3.org/2000/svg"
   xmlns:svg="http://www.w3.org/2000/svg"
   xmlns:rdf="http://www.w3.org/1999/02/22-rdf-syntax-ns#"
   xmlns:cc="http://creativecommons.org/ns#"
   xmlns:dc="http://purl.org/dc/elements/1.1/">
  <sodipodi:namedview
     id="namedview23"
     pagecolor="#ffffff"
     bordercolor="#666666"
     borderopacity="1.0"
     inkscape:showpageshadow="2"
     inkscape:pageopacity="0.0"
     inkscape:pagecheckerboard="0"
     inkscape:deskcolor="#d1d1d1"
     showgrid="false"
     inkscape:zoom="1.7741478"
     inkscape:cx="209.95996"
     inkscape:cy="72.147317"
     inkscape:window-width="1512"
     inkscape:window-height="862"
     inkscape:window-x="0"
     inkscape:window-y="136"
     inkscape:window-maximized="0"
     inkscape:current-layer="svg33" />
  <defs
     id="defs37" />
  <title
     id="title2">prod-FreeSWITCH_logo</title>
  <desc
     id="desc4">Created with Sketch.</desc>
  <g
     id="Page-1"
     stroke="none"
     stroke-width="1"
     fill="none"
     fill-rule="evenodd"
     transform="translate(4.5828939,-49.503318)">
    <g
       id="SIPUS"
       transform="translate(-901,-1321)"
       fill="#1b336f"
       fill-rule="nonzero">
      <g
         id="FreeSWITCH_logo"
         transform="translate(919,1376)">
        <path
           d="m 225.26029,19.633996 c -0.95315,3.390541 -1.8685,6.658204 -2.79484,9.925787 -3.45575,12.216166 -6.91686,24.432065 -10.35089,36.659224 -0.16247,0.575377 -0.37375,0.765471 -0.96414,0.754679 -1.90121,-0.04524 -3.80778,-0.01736 -5.75243,-0.01736 -3.72654,-12.897449 -7.44745,-25.767014 -11.16864,-38.64221 -0.0542,-0.0054 -0.10831,-0.01099 -0.15711,-0.01662 -0.092,0.245862 -0.20055,0.491456 -0.27616,0.742949 -2.82755,9.83637 -5.64947,19.667377 -8.47139,29.503746 -0.74751,2.603138 -1.50574,5.200377 -2.22617,7.814508 -0.1354,0.480463 -0.35203,0.608891 -0.81266,0.60326 -1.92829,-0.02788 -3.85631,-0.01099 -5.87147,-0.01099 -4.47941,-15.740819 -8.94783,-31.487 -13.4436,-47.316968 1.35962,0 2.627,0 3.89975,0 0.60674,0 1.21885,0.03909 1.81997,-0.01118 0.5255,-0.04467 0.75287,0.134058 0.88826,0.67029 1.06711,4.083191 2.16665,8.155068 3.25547,12.227213 2.17201,8.12713 4.34938,16.260159 6.52138,24.38729 0.0488,0.184463 0.12468,0.368659 0.18956,0.547492 0.0595,0.01126 0.11931,0.02225 0.17883,0.03352 3.61287,-12.60708 7.22546,-25.208529 10.84369,-37.826682 2.37255,0 4.70704,0 7.09568,0 3.61287,12.60153 7.22546,25.202979 10.83832,37.804428 0.0542,0.0054 0.11368,0.01662 0.16784,0.02225 0.0759,-0.206717 0.16275,-0.413435 0.21691,-0.625515 3.26056,-12.182652 6.52138,-24.365036 9.76585,-36.547634 0.1354,-0.513898 0.33032,-0.703805 0.87192,-0.692651 1.87949,0.03912 3.76461,0.01118 5.73607,0.01118 z"
           id="Path" />
        <path
           d="m 332.5442,19.667457 c 2.01087,0 3.97616,0 6.02457,0 0.0161,0.27372 0.0483,0.547413 0.0483,0.826709 0.005,5.976733 0,11.953493 0,17.930334 0,0.88237 0,0.88237 0.83384,0.88237 7.43217,0 14.86435,0 22.28848,0 0.23862,0 0.47188,0 0.79094,0 0,-6.55758 0,-13.076149 0,-19.633809 2.08594,0 4.09413,0 6.1479,0 0,15.723874 0,31.453432 0,47.233127 -2.00283,0 -4.00834,0 -6.09964,0 0,-7.172101 0,-14.361094 0,-21.639101 -0.3137,0 -0.54159,0 -0.77485,0 -7.4724,0 -14.94747,0.0054 -22.41718,-0.01689 -0.63543,0 -0.79094,0.195456 -0.78558,0.826601 0.0215,6.647131 0.0107,13.294261 0.0107,19.941123 0,0.285007 0,0.569747 0,0.888268 -2.0645,0 -4.04587,0 -6.07283,0 0.005,-15.735188 0.005,-31.447855 0.005,-47.238731 z"
           id="path7" />
        <path
           d="m 159.01715,23.823281 c -1.66285,1.558424 -3.29327,3.088857 -4.93977,4.630523 -0.0922,-0.07802 -0.16811,-0.122797 -0.21663,-0.189826 -1.93366,-2.625337 -4.57701,-3.770407 -7.7078,-3.870951 -1.99318,-0.06145 -3.92683,0.195484 -5.71972,1.189765 -2.98467,1.653498 -4.34938,5.122114 -3.2879,8.434418 0.30323,0.955297 0.82874,1.748384 1.56552,2.413044 1.83606,1.659101 4.06223,2.513587 6.33183,3.273427 2.15565,0.720428 4.34938,1.345942 6.46723,2.161551 2.36692,0.910522 4.39817,2.368268 5.97442,4.457427 1.18615,1.575182 1.7441,3.373703 1.9173,5.306551 0.34131,3.809391 -0.31396,7.367558 -2.61601,10.490036 -2.31839,3.144732 -5.48699,4.859602 -9.16474,5.607913 -4.58773,0.938406 -9.04569,0.379921 -13.31919,-1.575181 -2.16128,-0.988543 -3.94855,-2.468811 -5.3894,-4.518826 1.66822,-1.480268 3.33107,-2.954906 5.03736,-4.46842 0.23299,0.296 0.42791,0.552855 0.6282,0.80971 3.52626,4.513464 10.61632,5.602551 15.14989,2.329391 2.59992,-1.876811 3.74826,-4.853971 3.01175,-7.803246 -0.2708,-1.072464 -0.82339,-1.943841 -1.66822,-2.636652 -1.65213,-1.357203 -3.5697,-2.161551 -5.54652,-2.848732 -1.96636,-0.681283 -3.9649,-1.273551 -5.89855,-2.038754 -1.24593,-0.491456 -2.46452,-1.116971 -3.58578,-1.85429 -3.1198,-2.061275 -5.1186,-4.915637 -5.62775,-8.792058 -0.60112,-4.569231 0.50915,-8.540645 3.84022,-11.713342 2.09613,-1.994112 4.59873,-3.239752 7.40429,-3.787137 3.85658,-0.7485 7.67536,-0.452446 11.41799,0.6982 2.42135,0.742923 4.34401,2.251075 5.94198,4.295459 z"
           id="path9" />
        <path
           d="m 319.65319,55.812891 c 1.75616,1.368464 3.44529,2.68679 5.2658,4.105392 -1.05102,1.072463 -1.97602,2.200963 -3.07798,3.111485 -3.60079,2.97716 -7.72173,4.625 -12.34942,5.038167 -12.52637,1.117239 -22.93731,-7.674819 -25.09833,-19.477551 -1.68645,-9.210855 0.43703,-17.466413 7.18283,-24.068902 3.50964,-3.435236 7.84239,-5.205927 12.63094,-5.848279 4.70543,-0.631199 9.22855,-0.01118 13.55058,2.033203 2.45326,1.15625 4.7671,3.094514 6.06746,5.021598 -1.6784,1.307199 -3.35949,2.619626 -5.05935,3.954844 -0.12333,-0.123065 -0.22253,-0.201087 -0.30833,-0.296268 -3.42384,-3.960207 -7.76732,-5.339878 -12.79449,-4.904189 -6.24442,0.536231 -12.87493,5.183565 -14.78123,14.455819 -0.88747,4.306746 -0.67834,8.568718 1.00811,12.651855 2.53906,6.161036 7.05681,9.702312 13.53986,10.484406 3.37021,0.402174 6.60906,-0.0056 9.58782,-1.826406 1.52826,-0.933043 2.83399,-2.122674 3.94935,-3.541543 0.21718,-0.273747 0.42631,-0.552855 0.68638,-0.893631 z"
           id="path11" />
        <path
           d="m 6.5321891,40.513391 c 7.0414219,0 14.0286839,0 21.0537239,0 0,1.988616 0,3.921196 0,5.937696 -6.99796,0 -14.00147,0 -21.0862463,0 0,6.853848 0,13.623775 0,20.44384 -2.0582457,0 -4.0406842,0 -6.08269815,0 0,-15.718297 0,-31.442224 0,-47.221866 9.56549735,0 19.12560045,0 28.72911145,0 0,1.938264 0,3.870924 0,5.887397 -7.512743,0 -15.036237,0 -22.6138909,0 0,5.01039 0,9.925759 0,14.952933 z"
           id="path13" />
        <path
           d="m 63.269732,53.282413 c -0.05952,1.430131 0.243717,2.670167 0.845101,3.820652 1.662855,3.172884 4.376457,4.759058 7.729247,5.356957 3.867304,0.686913 6.943935,-0.787725 9.489695,-3.703486 0.259805,-0.296 0.514515,-0.592 0.817754,-0.938406 1.45158,1.145124 2.865355,2.267725 4.33329,3.42974 -1.104906,1.508152 -2.383283,2.753818 -3.878297,3.753623 -3.363515,2.251101 -7.095421,2.926753 -11.03887,2.68679 -2.659442,-0.167573 -5.151043,-0.904892 -7.420377,-2.362906 -3.602137,-2.3125 -5.708992,-5.714087 -6.602891,-9.91466 -1.056109,-4.982398 -0.449362,-9.724833 2.372558,-14.003427 2.724594,-4.122283 6.586536,-6.328877 11.385544,-6.809073 2.979036,-0.296 5.89292,-0.01126 8.601159,1.396348 4.176174,2.167181 6.559456,5.758862 7.507246,10.400754 0.276428,1.34621 0.395471,2.731297 0.514783,4.100029 0.07561,0.904891 0.01609,1.815145 0.01609,2.787065 -8.238399,0 -16.411913,0 -24.672029,0 z m 18.480964,-4.775681 c 0,-0.234602 0.01099,-0.430058 0,-0.625515 -0.368124,-4.949152 -3.043921,-7.920681 -7.398928,-8.568717 -4.739217,-0.709435 -9.386739,2.200696 -10.762442,6.915246 -0.211275,0.720428 -0.276159,1.491261 -0.417188,2.278986 6.288659,0 12.403848,0 18.578558,0 z"
           id="Shape" />
        <path
           d="m 124.23233,53.304935 c -8.41161,0 -16.59075,0 -24.812794,0 -0.108319,1.055572 0.09733,2.005239 0.449631,2.91013 1.348623,3.440732 3.975623,5.28966 7.371843,6.099638 4.06223,0.96629 7.41502,-0.340775 10.1557,-3.485507 0.27643,-0.312892 0.54722,-0.625783 0.88291,-1.011066 1.44621,1.145124 2.87634,2.273355 4.33329,3.42974 -1.45158,1.954833 -3.15251,3.530014 -5.24864,4.568963 -4.62018,2.295877 -9.40846,2.591877 -14.25063,0.893899 -4.197894,-1.474638 -7.12277,-4.457428 -8.666582,-8.725029 -2.003899,-5.541152 -1.771174,-10.998384 1.305457,-16.098218 2.664804,-4.418282 6.646055,-6.769927 11.650975,-7.289268 3.00076,-0.312891 5.93636,-0.01689 8.66095,1.407609 4.4089,2.3125 6.79755,6.161036 7.60457,11.076406 0.33059,2.005239 0.37912,4.060884 0.56332,6.222703 z m -6.34255,-4.78158 c 0,-0.256855 0.0107,-0.452311 0,-0.647768 -0.36303,-4.614007 -2.70288,-7.931942 -7.59948,-8.590971 -4.66361,-0.631145 -9.2189,2.323761 -10.562162,6.954123 -0.211276,0.720696 -0.27616,1.485899 -0.411558,2.284616 6.2723,0 12.37677,0 18.5732,0 z"
           id="path16" />
        <path
           d="m 265.19643,66.917449 c -2.0905,0 -4.05687,0 -6.12592,0 0,-13.740942 0,-27.481884 0,-41.301116 -4.9832,0 -9.86345,0 -14.79249,0 0,-2.010869 0,-3.937953 0,-5.926488 11.85689,0 23.71352,0 35.64039,0 0,1.915903 0,3.85977 0,5.881793 -4.87435,0 -9.75406,0 -14.72198,0 0,13.807891 0,27.53784 0,41.345811 z"
           id="path18" />
        <path
           d="m 36.929485,11.864184 c 2.063689,-0.899314 4.10566,-1.8656579 6.196428,-2.686763 6.96029,-2.7314311 14.180384,-4.423913 21.525152,-5.6136775 5.476,-0.8881234 10.98471,-1.4411125 16.520232,-1.7706699 6.061029,-0.3574897 12.122058,-0.3854166 18.183087,-0.078201 6.375266,0.3239726 12.723446,0.9886749 19.028186,2.0890764 7.87001,1.3740942 15.57781,3.3123311 22.94429,6.540902 0.99123,0.435689 1.9661,0.916072 3.09808,1.4467 -0.89899,0.385417 -1.65749,0.714985 -2.42109,1.03895 -2.26423,0.960766 -4.52284,1.927083 -6.79218,2.854335 -0.26543,0.106121 -0.70434,0.07818 -0.93706,-0.07821 C 128.52218,11.657493 122.21743,9.021029 115.58773,7.1442174 111.01072,5.8483326 106.35248,4.9881094 101.63471,4.4798152 95.784957,3.8542203 89.918848,3.7592536 84.052739,4.2172761 76.626732,4.7926261 69.347116,6.1890543 62.294862,8.7026413 57.100384,10.557119 52.160616,12.953405 47.664848,16.248979 c -0.335681,0.245782 -0.595754,0.30163 -0.991225,0.128481 -2.648717,-1.145069 -5.318884,-2.251048 -7.972964,-3.39054 -0.595753,-0.256963 -1.159065,-0.592108 -1.733369,-0.893738 -0.01609,-0.07261 -0.02708,-0.150815 -0.0378,-0.228998 z"
           id="path20" />
        <path
           d="m 237.40996,66.917449 c -2.00416,0 -3.98098,0 -6.00687,0 0,-15.763072 0,-31.487 0,-47.244388 2.00953,0 3.97026,0 6.00687,0 0,15.729504 0,31.470055 0,47.244388 z"
           id="path22" />
        <path
           d="m 36.035855,66.911819 c 0,-10.534812 0,-21.024848 0,-31.570652 1.90121,0 3.791696,0 5.747065,0 0,1.586174 0,3.161355 0,4.736536 0.04853,0.02252 0.102689,0.04478 0.151486,0.06703 0.130036,-0.206717 0.265435,-0.402174 0.384746,-0.614254 2.074413,-3.636456 6.949297,-5.787014 10.876123,-4.798203 0.346674,0.08928 0.585029,0.156312 0.55795,0.625515 -0.108319,1.871181 -0.173203,3.742362 -0.254442,5.608181 -0.0056,0.08365 -0.03271,0.167573 -0.03271,0.156312 -1.213225,-0.08928 -2.39937,-0.301631 -3.569428,-0.234602 -1.104906,0.06703 -2.247884,0.29037 -3.276913,0.698174 -2.702877,1.061471 -4.046138,3.301312 -4.533573,6.122159 -0.184195,1.044312 -0.265434,2.122406 -0.270797,3.183877 -0.02708,5.060689 -0.01099,10.121377 -0.01099,15.182065 0,0.262486 0,0.524972 0,0.826602 -1.944377,0.01126 -3.818508,0.01126 -5.768515,0.01126 z"
           id="path24" />
        <path
           d="m 58.395116,21.069516 c 19.239196,-10.445341 47.784164,-9.138276 63.903554,0.111724 -1.89021,0.804348 -3.74263,1.597515 -5.60603,2.368348 -0.14613,0.06145 -0.39521,0.0056 -0.5306,-0.08936 -5.71463,-3.971467 -12.08426,-6.144332 -18.865714,-7.032466 -8.639232,-1.128313 -17.099899,-0.346326 -25.284138,2.887823 -2.57284,1.016615 -5.026637,2.284589 -7.312326,3.876527 -0.363029,0.251359 -0.67163,0.284874 -1.072463,0.106121 -1.70629,-0.742896 -3.423305,-1.463458 -5.232283,-2.228714 z"
           id="path26" />
        <path
           d="m 103.82254,29.001297 c -1.37571,0.58637 -2.58357,1.117239 -3.80242,1.614326 -0.129772,0.05014 -0.330323,0 -0.471084,-0.06703 -6.055666,-2.759449 -12.111333,-2.76508 -18.172362,0 -0.140761,0.06703 -0.346674,0.128428 -0.471348,0.07266 -1.137348,-0.469203 -2.263971,-0.960928 -3.390594,-1.530674 8.704384,-4.178051 17.4085,-4.200412 26.307808,-0.08928 z"
           id="path28" />
      </g>
    </g>
  </g>
  <metadata
     id="metadata767">
    <rdf:RDF>
      <cc:Work
         rdf:about="">
        <dc:title>prod-FreeSWITCH_logo</dc:title>
      </cc:Work>
    </rdf:RDF>
  </metadata>
</svg>
